<svg xmlns="http://www.w3.org/2000/svg" version="1.1" xmlns:xlink="http://www.w3.org/1999/xlink" xmlns:svgjs="http://svgjs.dev/svgjs" width="1500" height="935" viewBox="0 0 1500 935"><g transform="matrix(1,0,0,1,-0.9090909090909918,157.4704079254078)"><svg viewBox="0 0 396 247" data-background-color="#efeae3" preserveAspectRatio="xMidYMid meet" height="935" width="1500" xmlns="http://www.w3.org/2000/svg" xmlns:xlink="http://www.w3.org/1999/xlink"><g id="tight-bounds" transform="matrix(1,0,0,1,0.2400000000000091,-0.09999999999999432)"><svg viewBox="0 0 395.52 247.2" height="247.2" width="395.52"><g><svg></svg></g><g><svg viewBox="0 0 395.52 247.2" height="247.2" width="395.52"><g transform="matrix(1,0,0,1,75.54432,75.4540531212519)"><svg viewBox="0 0 244.43135999999998 96.29189375749618" height="96.29189375749618" width="244.43135999999998"><g><svg viewBox="0 0 244.43135999999998 96.29189375749618" height="96.29189375749618" width="244.43135999999998"><g transform="matrix(1,0,0,1,0,59.51225338132063)"><svg viewBox="0 0 244.43135999999998 36.77964037617555" height="36.77964037617555" width="244.43135999999998"><g id="textblocktransform"><svg viewBox="0 0 244.43135999999998 36.77964037617555" height="36.77964037617555" width="244.43135999999998" id="textblock"><g><svg viewBox="0 0 244.43135999999998 36.77964037617555" height="36.77964037617555" width="244.43135999999998"><g transform="matrix(1,0,0,1,0,0)"><svg width="244.43135999999998" viewBox="1 -35.9 318.97 48" height="36.77964037617555" data-palette-color="#000000"><path d="M17.85 0.7Q14.15-11.85 11.05-20.75L11.05-20.75 10.5-20.75Q10.4-17.75 10.05-11.3L10.05-11.3 9.75-5.3Q9.75-3.65 11.4-3.65L11.4-3.65Q12.4-3.65 12.9-3.75L12.9-3.75 13.25-3.4 12.7 0.2 10.85 0.15Q8.4 0 6.3 0L6.3 0Q5.25 0 3.43 0.15 1.6 0.3 1 0.4L1 0.4 1.35-3.35Q2.7-3.55 3.33-4.28 3.95-5 4.3-6.85L4.3-6.85Q4.7-10.3 5.45-17.9 6.2-25.5 6.2-26.2L6.2-26.2Q6.2-27.15 5.95-27.6 5.7-28.05 4.98-28.28 4.25-28.5 2.7-28.65L2.7-28.65 2.35-29 2.85-32.45 5.25-32.35Q7.95-32.2 9.55-32.2L9.55-32.2Q11.7-32.2 14.05-32.35L14.05-32.35 15.85-32.4Q17.4-26.45 19.5-19.3L19.5-19.3 21.1-13.55 21.6-13.55Q22.25-15.75 22.4-16.1L22.4-16.1Q22.95-17.95 24.5-22.98 26.05-28 27.3-32.25L27.3-32.25Q28.85-32.25 29.7-32.2L29.7-32.2 32.55-32.15Q33.95-32.15 34.6-32.2L34.6-32.2Q35.8-32.25 39.5-32.5L39.5-32.5 39.8-32.3 39.45-28.75Q37.35-28.6 36.63-28.05 35.9-27.5 35.9-26.1L35.9-26.1Q35.9-24.25 36.27-18.28 36.65-12.3 37.05-8.2L37.05-8.2Q37.3-5.55 37.8-4.63 38.3-3.7 39.45-3.7L39.45-3.7Q40.4-3.7 40.9-3.8L40.9-3.8 41.15-3.45 40.7 0.15Q37.85 0 35.45 0L35.45 0Q34 0 31.2 0.15 28.4 0.3 27.3 0.4L27.3 0.4 27.8-3.4Q29.2-3.55 29.83-4.13 30.45-4.7 30.45-5.85L30.45-5.85 30.25-10.55Q29.9-15.85 29.75-20.75L29.75-20.75 29.25-20.75Q25.75-10.9 22.4 0.25L22.4 0.25 17.85 0.7ZM60.75 0.6Q58.4 0.6 57.05-0.35 55.7-1.3 55.5-3.15L55.5-3.15 55-3.35Q53.45-1.8 51.92-0.7 50.4 0.4 49.45 0.4L49.45 0.4Q47.5 0.4 45.87-0.63 44.25-1.65 43.32-3.45 42.4-5.25 42.4-7.4L42.4-7.4Q42.4-9 43.25-10.18 44.1-11.35 45.45-11.65L45.45-11.65 55.15-13.7 55.15-14.4Q55.15-16.35 54.05-17.43 52.95-18.5 50.95-18.5L50.95-18.5Q49.65-18.5 48.05-17.82 46.45-17.15 45.15-16.25L45.15-16.25 44.65-16.5 43.6-19.95Q46.35-21.45 49.2-22.68 52.05-23.9 53.3-23.9L53.3-23.9Q58-23.9 60.17-21.95 62.35-20 62.35-16.9L62.35-16.9Q62.35-16.2 61.85-12.3L61.85-12.3Q61.8-11.7 61.55-9.85 61.3-8 61.3-7.25L61.3-7.25Q61.3-6.4 61.75-5.88 62.2-5.35 62.95-5.35L62.95-5.35Q63.9-5.35 65.05-6L65.05-6 65.85-4.85Q64.85-3 63.4-1.35 61.95 0.3 60.75 0.6L60.75 0.6ZM51.85-5.1Q52.5-5.1 53.37-5.38 54.25-5.65 54.95-6.05L54.95-6.05 55.05-10.55 50.5-9.4Q49.9-9.25 49.65-8.93 49.4-8.6 49.4-8L49.4-8Q49.4-6.75 50.07-5.93 50.75-5.1 51.85-5.1L51.85-5.1ZM74.45 0.6Q72.59 0.6 71.02 0.28 69.45-0.05 68.55-0.43 67.65-0.8 67.4-0.9L67.4-0.9 67-1.5Q67.25-3.15 67.75-8L67.75-8 71.05-8.3Q71.09-6.15 72.2-4.95 73.3-3.75 75.25-3.75L75.25-3.75Q76.45-3.75 77.22-4.25 78-4.75 78-5.55L78-5.55Q78-6.45 77.09-7.13 76.2-7.8 73.4-9.1L73.4-9.1Q70.34-10.4 68.97-12.05 67.59-13.7 67.59-15.95L67.59-15.95Q67.59-18.3 68.97-20.1 70.34-21.9 72.82-22.9 75.3-23.9 78.5-23.9L78.5-23.9Q80.05-23.9 81.37-23.7 82.7-23.5 83.45-23.28 84.2-23.05 84.4-22.95L84.4-22.95 84.75-22.3Q84.65-21.75 84.32-19.75 84-17.75 83.8-15.65L83.8-15.65 80.45-15.45 80.5-16.05Q80.45-17.75 79.7-18.57 78.95-19.4 77.34-19.4L77.34-19.4Q76.2-19.4 75.47-18.9 74.75-18.4 74.75-17.55L74.75-17.55Q74.75-16.7 75.45-16.03 76.15-15.35 77.7-14.65L77.7-14.65Q80.75-13.3 82.34-12.18 83.95-11.05 84.59-9.88 85.25-8.7 85.25-7.05L85.25-7.05Q85.25-4.9 83.84-3.15 82.45-1.4 79.97-0.4 77.5 0.6 74.45 0.6L74.45 0.6ZM96.84 0.6Q89.69 0.6 89.69-5.6L89.69-5.6 89.69-16.15Q89.69-17.8 89.17-18.35 88.64-18.9 87.04-18.95L87.04-18.95 86.44-19.35 86.79-22.25Q88.94-23.25 91.07-24.55 93.19-25.85 94.59-26.8 95.99-27.75 96.34-28.05L96.34-28.05 97.94-27.15Q97.89-26.85 97.69-25.58 97.49-24.3 97.29-22.5L97.29-22.5 102.44-22.65 102.69-22.4 102.14-18.6 96.94-18.75Q96.69-14.25 96.69-8.75L96.69-8.75Q96.69-6.85 97.37-5.95 98.04-5.05 99.54-5.05L99.54-5.05Q100.34-5.05 101.19-5.3 102.04-5.55 102.29-5.65L102.29-5.65 102.99-3.85Q102.64-3.5 101.49-2.45 100.34-1.4 98.99-0.4 97.64 0.6 96.84 0.6L96.84 0.6ZM115.99 0.6Q110.44 0.6 107.37-2.53 104.29-5.65 104.29-11.2L104.29-11.2Q104.29-14.85 105.84-17.75 107.39-20.65 110.17-22.28 112.94-23.9 116.49-23.9L116.49-23.9Q125.39-23.9 125.39-14.75L125.39-14.75Q125.39-13.2 125.04-11.7L125.04-11.7 124.44-11.15 111.99-11.15Q112.09-8.15 113.62-6.58 115.14-5 117.79-5L117.79-5Q120.44-5 123.64-6.45L123.64-6.45 124.09-6.25 124.99-3.25Q123.09-1.8 120.54-0.6 117.99 0.6 115.99 0.6L115.99 0.6ZM111.89-14.35L117.54-14.7Q118.04-14.8 118.19-14.98 118.34-15.15 118.34-15.75L118.34-15.75Q118.34-19.25 115.64-19.25L115.64-19.25Q112.09-19.25 111.89-14.35L111.89-14.35ZM128.54-3.4Q129.99-3.5 130.54-4.15 131.09-4.8 131.09-6.45L131.09-6.45 131.09-15.85Q131.09-17.6 130.64-18.2 130.19-18.8 128.84-18.8L128.84-18.8 127.94-18.75 127.69-19.1 128.04-22.15Q131.14-22.6 134.26-23.18 137.39-23.75 138.29-23.9L138.29-23.9 138.84-23.4Q138.74-23 138.51-21.63 138.29-20.25 138.24-18.95L138.24-18.95 138.59-18.75Q140.19-21.05 141.99-22.28 143.79-23.5 145.64-23.5L145.64-23.5Q146.19-23.5 146.74-23.43 147.29-23.35 147.44-23.3L147.44-23.3 147.64-22.85Q147.49-21.9 147.09-18.75 146.69-15.6 146.54-12.75L146.54-12.75 142.69-12.5Q142.69-15.05 142.39-15.9 142.09-16.75 141.24-16.75L141.24-16.75Q140.59-16.75 139.89-16.32 139.19-15.9 138.54-15.15L138.54-15.15Q138.44-13.8 138.26-10.7 138.09-7.6 138.04-5.8L138.04-5.8Q138.04-4.7 138.44-4.25 138.84-3.8 139.79-3.8L139.79-3.8Q140.64-3.8 141.41-3.88 142.19-3.95 142.44-4L142.44-4 142.64-3.65 142.04 0.25Q141.29 0.2 138.86 0.1 136.44 0 134.84 0L134.84 0Q132.89 0 130.79 0.1 128.69 0.2 128.04 0.25L128.04 0.25 128.54-3.4ZM151.69 12.1Q151.09 12.1 149.99 11.2 148.89 10.3 148.01 9.18 147.14 8.05 147.14 7.45L147.14 7.45 147.59 6.7Q150.94 6.3 153.51 4.75 156.09 3.2 157.74 0.65L157.74 0.65 156.64-2.4Q155.09-6.6 153.34-11.2 151.59-15.8 150.74-17.6L150.74-17.6Q150.24-18.7 149.59-19.13 148.94-19.55 147.94-19.65L147.94-19.65 147.84-19.9 148.19-23.3 151.99-23.3Q154.34-23.3 157.34-23.45 160.34-23.6 160.34-23.65L160.34-23.65 160.44-23.4 159.99-19.85Q158.69-19.8 158.26-19.53 157.84-19.25 157.84-18.65L157.84-18.65Q157.84-17.7 159.06-13.38 160.29-9.05 160.74-7.55L160.74-7.55 161.44-7.55Q165.34-17.8 165.34-18.8L165.34-18.8Q165.34-19.3 165.06-19.5 164.79-19.7 164.04-19.7L164.04-19.7 162.79-19.7 162.59-20 163.09-23.45Q163.64-23.4 165.19-23.35 166.74-23.3 168.49-23.3L168.49-23.3 173.29-23.3 172.89-19.7Q171.79-19.45 171.34-19.03 170.89-18.6 170.49-17.45L170.49-17.45 164.14-1.9Q158.34 12.1 151.69 12.1L151.69 12.1ZM189.88 0.7Q186.18-11.85 183.08-20.75L183.08-20.75 182.53-20.75Q182.43-17.75 182.08-11.3L182.08-11.3 181.78-5.3Q181.78-3.65 183.43-3.65L183.43-3.65Q184.43-3.65 184.93-3.75L184.93-3.75 185.28-3.4 184.73 0.2 182.88 0.15Q180.43 0 178.33 0L178.33 0Q177.28 0 175.46 0.15 173.63 0.3 173.03 0.4L173.03 0.4 173.38-3.35Q174.73-3.55 175.36-4.28 175.98-5 176.33-6.85L176.33-6.85Q176.73-10.3 177.48-17.9 178.23-25.5 178.23-26.2L178.23-26.2Q178.23-27.15 177.98-27.6 177.73-28.05 177.01-28.28 176.28-28.5 174.73-28.65L174.73-28.65 174.38-29 174.88-32.45 177.28-32.35Q179.98-32.2 181.58-32.2L181.58-32.2Q183.73-32.2 186.08-32.35L186.08-32.35 187.88-32.4Q189.43-26.45 191.53-19.3L191.53-19.3 193.13-13.55 193.63-13.55Q194.28-15.75 194.43-16.1L194.43-16.1Q194.98-17.95 196.53-22.98 198.08-28 199.33-32.25L199.33-32.25Q200.88-32.25 201.73-32.2L201.73-32.2 204.58-32.15Q205.98-32.15 206.63-32.2L206.63-32.2Q207.83-32.25 211.53-32.5L211.53-32.5 211.83-32.3 211.48-28.75Q209.38-28.6 208.66-28.05 207.93-27.5 207.93-26.1L207.93-26.1Q207.93-24.25 208.31-18.28 208.68-12.3 209.08-8.2L209.08-8.2Q209.33-5.55 209.83-4.63 210.33-3.7 211.48-3.7L211.48-3.7Q212.43-3.7 212.93-3.8L212.93-3.8 213.18-3.45 212.73 0.15Q209.88 0 207.48 0L207.48 0Q206.03 0 203.23 0.15 200.43 0.3 199.33 0.4L199.33 0.4 199.83-3.4Q201.23-3.55 201.86-4.13 202.48-4.7 202.48-5.85L202.48-5.85 202.28-10.55Q201.93-15.85 201.78-20.75L201.78-20.75 201.28-20.75Q197.78-10.9 194.43 0.25L194.43 0.25 189.88 0.7ZM225.73 0.6Q220.73 0.6 217.76-2.55 214.78-5.7 214.78-11L214.78-11Q214.78-14.9 216.31-17.82 217.83-20.75 220.61-22.33 223.38-23.9 227.08-23.9L227.08-23.9Q232.23-23.9 235.13-20.85 238.03-17.8 238.03-12.3L238.03-12.3Q238.03-8.4 236.53-5.48 235.03-2.55 232.23-0.98 229.43 0.6 225.73 0.6L225.73 0.6ZM226.58-3.85Q228.38-3.85 229.21-5.25 230.03-6.65 230.03-9.8L230.03-9.8Q230.03-14.55 229.06-16.73 228.08-18.9 226.08-18.9L226.08-18.9Q224.28-18.9 223.46-17.5 222.63-16.1 222.63-13.05L222.63-13.05Q222.63-8.2 223.61-6.03 224.58-3.85 226.58-3.85L226.58-3.85ZM248.03 0.6Q246.18 0.6 244.6 0.28 243.03-0.05 242.13-0.43 241.23-0.8 240.98-0.9L240.98-0.9 240.58-1.5Q240.83-3.15 241.33-8L241.33-8 244.63-8.3Q244.68-6.15 245.78-4.95 246.88-3.75 248.83-3.75L248.83-3.75Q250.03-3.75 250.8-4.25 251.58-4.75 251.58-5.55L251.58-5.55Q251.58-6.45 250.68-7.13 249.78-7.8 246.98-9.1L246.98-9.1Q243.93-10.4 242.55-12.05 241.18-13.7 241.18-15.95L241.18-15.95Q241.18-18.3 242.55-20.1 243.93-21.9 246.4-22.9 248.88-23.9 252.08-23.9L252.08-23.9Q253.63-23.9 254.95-23.7 256.28-23.5 257.03-23.28 257.78-23.05 257.98-22.95L257.98-22.95 258.33-22.3Q258.23-21.75 257.9-19.75 257.58-17.75 257.38-15.65L257.38-15.65 254.03-15.45 254.08-16.05Q254.03-17.75 253.28-18.57 252.53-19.4 250.93-19.4L250.93-19.4Q249.78-19.4 249.05-18.9 248.33-18.4 248.33-17.55L248.33-17.55Q248.33-16.7 249.03-16.03 249.73-15.35 251.28-14.65L251.28-14.65Q254.33-13.3 255.93-12.18 257.53-11.05 258.18-9.88 258.83-8.7 258.83-7.05L258.83-7.05Q258.83-4.9 257.43-3.15 256.03-1.4 253.55-0.4 251.08 0.6 248.03 0.6L248.03 0.6ZM279.53 0.6Q277.18 0.6 275.83-0.35 274.48-1.3 274.28-3.15L274.28-3.15 273.78-3.35Q272.23-1.8 270.7-0.7 269.18 0.4 268.23 0.4L268.23 0.4Q266.28 0.4 264.65-0.63 263.03-1.65 262.1-3.45 261.18-5.25 261.18-7.4L261.18-7.4Q261.18-9 262.03-10.18 262.88-11.35 264.23-11.65L264.23-11.65 273.93-13.7 273.93-14.4Q273.93-16.35 272.83-17.43 271.73-18.5 269.73-18.5L269.73-18.5Q268.43-18.5 266.83-17.82 265.23-17.15 263.93-16.25L263.93-16.25 263.43-16.5 262.38-19.95Q265.13-21.45 267.98-22.68 270.83-23.9 272.08-23.9L272.08-23.9Q276.78-23.9 278.95-21.95 281.13-20 281.13-16.9L281.13-16.9Q281.13-16.2 280.63-12.3L280.63-12.3Q280.58-11.7 280.33-9.85 280.08-8 280.08-7.25L280.08-7.25Q280.08-6.4 280.53-5.88 280.98-5.35 281.73-5.35L281.73-5.35Q282.68-5.35 283.83-6L283.83-6 284.63-4.85Q283.63-3 282.18-1.35 280.73 0.3 279.53 0.6L279.53 0.6ZM270.63-5.1Q271.28-5.1 272.15-5.38 273.03-5.65 273.73-6.05L273.73-6.05 273.83-10.55 269.28-9.4Q268.68-9.25 268.43-8.93 268.18-8.6 268.18-8L268.18-8Q268.18-6.75 268.85-5.93 269.53-5.1 270.63-5.1L270.63-5.1ZM285.67 0.55L286.17-3.2Q287.62-3.4 288.32-4.13 289.02-4.85 289.02-6.25L289.02-6.25 289.02-16.05Q289.02-17.7 288.55-18.3 288.07-18.9 286.77-18.9L286.77-18.9Q286.42-18.9 286.07-18.82 285.72-18.75 285.62-18.7L285.62-18.7 285.97-22.15Q289.22-22.55 292.47-23.13 295.72-23.7 296.67-23.9L296.67-23.9 297.22-22.95Q296.67-21.85 296.35-17.18 296.02-12.5 296.02-5.45L296.02-5.45Q296.02-4.4 296.32-3.98 296.62-3.55 297.42-3.55L297.42-3.55Q297.82-3.55 298.22-3.6 298.62-3.65 298.77-3.65L298.77-3.65 298.87-3.45 298.37 0.2Q297.72 0.15 295.95 0.08 294.17 0 292.27 0L292.27 0Q290.62 0 288.47 0.23 286.32 0.45 285.67 0.55L285.67 0.55ZM292.07-27.3Q290.12-27.3 289.07-28.38 288.02-29.45 288.02-31.35L288.02-31.35Q288.02-33.4 289.25-34.65 290.47-35.9 292.47-35.9L292.47-35.9Q294.37-35.9 295.42-34.8 296.47-33.7 296.47-31.8L296.47-31.8Q296.47-29.75 295.27-28.53 294.07-27.3 292.07-27.3L292.07-27.3ZM311.97 0.6Q306.67 0.6 303.7-2.55 300.72-5.7 300.72-11.2L300.72-11.2Q300.72-14.95 302.27-17.82 303.82-20.7 306.65-22.3 309.47-23.9 313.17-23.9L313.17-23.9Q314.97-23.9 316.42-23.68 317.87-23.45 318.72-23.2 319.57-22.95 319.77-22.85L319.77-22.85 319.97-22.35Q319.82-21.7 319.45-19.3 319.07-16.9 318.87-14.2L318.87-14.2 315.07-14 315.07-15.7Q315.07-18.95 312.42-18.95L312.42-18.95Q308.52-18.95 308.52-13.2L308.52-13.2Q308.52-5.2 313.37-5.2L313.37-5.2Q314.57-5.2 315.72-5.5 316.87-5.8 317.6-6.15 318.32-6.5 318.52-6.6L318.52-6.6 318.97-6.4 319.87-3.3Q319.87-3.25 318.42-2.2 316.97-1.15 315.2-0.28 313.42 0.6 311.97 0.6L311.97 0.6Z" opacity="1" transform="matrix(1,0,0,1,0,0)" fill="#000000" class="wordmark-text-0" data-fill-palette-color="primary" id="text-0"></path></svg></g></svg></g></svg></g></svg></g><g transform="matrix(1,0,0,1,69.20942808202444,0)"><svg viewBox="0 0 106.0125038359511 50.829462999874615" height="50.829462999874615" width="106.0125038359511"><g><svg xmlns="http://www.w3.org/2000/svg" xmlns:xlink="http://www.w3.org/1999/xlink" xmlns:a="http://ns.adobe.com/AdobeSVGViewerExtensions/3.0/" version="1.1" x="0" y="0" viewBox="0 0 97.42699999999999 46.713" enable-background="new -1.286 -24.917 100 100" xml:space="preserve" height="50.829462999874615" width="106.0125038359511" class="icon-icon-0" data-fill-palette-color="accent" id="icon-0"><path d="M35.03 35.148c-7.732-3.146-11.661-3.487-15.821-3.848-4.101-0.354-8.347-0.729-16.382-3.95-0.597 0.901-1.09 2.651-1.487 4.772 8.261 2.153 12.443 1.988 16.477 1.821 4.081-0.168 8.298-0.341 16.548 1.847 2.792 0.741 4.966 1.47 6.695 2.176C39.524 37.117 37.569 36.181 35.03 35.148z" fill="#ff4500" data-fill-palette-color="accent"></path><path d="M34.048 37.982c-8.068-2.141-12.008-1.98-16.182-1.808-4.11 0.17-8.367 0.338-16.739-1.835-0.27 1.654-0.488 3.445-0.661 5.174 8.167 0.969 12.216 0.268 16.122-0.416 4.021-0.703 8.179-1.43 16.647-0.348 3.312 0.424 5.807 0.94 7.732 1.5C39.258 39.53 37.023 38.771 34.048 37.982z" fill="#ff4500" data-fill-palette-color="accent"></path><path d="M16.801 41.31c-3.991 0.697-8.125 1.412-16.451 0.43C0.18 43.635 0.063 45.386 0 46.685c8.365-0.059 12.312-1.281 16.133-2.465 3.901-1.208 7.934-2.457 16.469-2.457 2.886 0 5.174 0.146 7.025 0.387-1.702-0.43-3.83-0.831-6.547-1.178C24.8 39.912 20.914 40.591 16.801 41.31z" fill="#ff4500" data-fill-palette-color="accent"></path><path d="M79.611 33.969c4.043 0.165 8.232 0.333 16.533-1.835-0.41-2.307-0.904-4.096-1.479-4.783-8.078 3.246-12.334 3.619-16.447 3.975-4.16 0.361-8.09 0.7-15.822 3.849-2.539 1.034-4.496 1.97-6.031 2.821 1.729-0.707 3.904-1.438 6.699-2.178C71.312 33.628 75.531 33.802 79.611 33.969z" fill="#ff4500" data-fill-palette-color="accent"></path><path d="M94.041 25.278L85.287 0c-6.336 2.515-9.715 2.807-12.984 3.09-3.342 0.289-6.498 0.562-12.707 3.089-8.611 3.506-9.078 5.696-9.328 6.873-0.121 0.565-0.264 1.197-1.038 1.609v28.725c0.004-0.006 0.012-0.012 0.017-0.02 0.036-0.052 0.068-0.115 0.1-0.184 0.065-0.158 0.114-0.348 0.174-0.625 0.39-1.831 1.042-4.896 12.414-9.523 7.904-3.22 12.111-3.583 16.18-3.936C82.107 28.753 86.234 28.397 94.041 25.278z" fill="#ff4500" data-fill-palette-color="accent"></path><path d="M80.837 39.123c3.91 0.684 7.961 1.383 16.141 0.414-0.172-1.79-0.383-3.569-0.633-5.184-8.398 2.184-12.664 2.017-16.785 1.846-4.174-0.171-8.113-0.332-16.182 1.809-2.975 0.79-5.209 1.549-6.922 2.27 1.926-0.56 4.422-1.076 7.734-1.5C72.656 37.693 76.818 38.42 80.837 39.123z" fill="#ff4500" data-fill-palette-color="accent"></path><path d="M81.294 44.247c3.82 1.183 7.768 2.406 16.133 2.466-0.072-1.51-0.188-3.213-0.336-4.948-8.334 0.985-12.473 0.269-16.465-0.429-4.113-0.719-7.998-1.397-16.279-0.338-2.715 0.348-4.844 0.75-6.545 1.178 1.85-0.238 4.137-0.387 7.023-0.387C73.361 41.789 77.394 43.039 81.294 44.247z" fill="#ff4500" data-fill-palette-color="accent"></path><path d="M47.907 42.533c0.033 0.154 0.061 0.279 0.091 0.394V14.662c-0.774-0.412-0.917-1.044-1.037-1.609-0.251-1.177-0.717-3.367-9.329-6.873-6.209-2.527-9.365-2.8-12.706-3.089-3.27-0.283-6.647-0.576-12.981-3.089L3.382 25.25c7.81 3.121 11.938 3.479 15.933 3.824 4.068 0.353 8.274 0.717 16.179 3.934C46.866 37.636 47.518 40.702 47.907 42.533z" fill="#ff4500" data-fill-palette-color="accent"></path></svg></g></svg></g><g></g></svg></g></svg></g><g><path d="M89.56 66.771A122.216 122.216 0 0 1 305.96 66.771L302.643 66.771A118.899 118.899 0 0 0 92.877 66.771L89.56 66.771M89.56 180.429A122.216 122.216 0 0 0 305.96 180.429L302.643 180.429A118.899 118.899 0 0 1 92.877 180.429L89.56 180.429" fill="#e5dac4" stroke="transparent" data-fill-palette-color="tertiary"></path></g></svg></g><defs></defs></svg><rect width="395.52" height="247.2" fill="none" stroke="none" visibility="hidden"></rect></g></svg></g></svg>